<svg width="349" height="39" viewBox="0 0 349 39" fill="none" xmlns="http://www.w3.org/2000/svg">
<path d="M52.2 36C50.7 36 49.5 35.7 48.5 35C47.5 34.3 46.8 33.3 46.3 32C45.8 30.7 45.6 29.1 45.6 27.3V14.1C45.6 12.7 45.7 11.5 45.9 10.4C46.1 9.3 46.5 8.3 47 7.5C47.5 6.7 48.2 6.1 49.1 5.7C50 5.3 51 5.1 52.3 5.1C53.6 5.1 54.4 5.3 55.2 5.7C56 6.1 56.7 6.6 57.2 7.3C57.7 8 58.1 8.8 58.3 9.8C58.5 10.8 58.7 11.9 58.7 13.1V17.3H54.2V13.4C54.2 11.9 54.1 10.8 53.8 10.1C53.5 9.4 53 9 52.3 9C51.6 9 50.9 9.4 50.6 10.2C50.3 11 50.2 12 50.2 13.4V27.5C50.2 28.6 50.2 29.4 50.4 30.1C50.5 30.8 50.7 31.3 51 31.6C51.3 31.9 51.7 32.1 52.2 32.1C53 32.1 53.5 31.7 53.8 31C54.1 30.3 54.2 29.1 54.2 27.5V23.2H58.7V27.5C58.7 29.4 58.5 31 58 32.3C57.6 33.6 56.8 34.5 55.9 35.2C54.9 35.8 53.7 36.1 52.1 36.1L52.2 36Z" fill="white"/>
<path d="M60.5 35.8L63.9 11.8H68.7L72.3 35.8H68.9L68.3 31.5H64.4L63.9 35.8H60.4H60.5ZM64.8 28.5H67.9L66.3 16.4L64.8 28.5Z" fill="white"/>
<path d="M78.9 36C77.9 36 77.1 35.8 76.4 35.5C75.7 35.2 75.2 34.7 74.8 34.1C74.4 33.5 74.1 32.8 74 31.9C73.8 31 73.8 30 73.8 28.9V26.8H77.3V29.2C77.3 30.5 77.4 31.4 77.6 32C77.8 32.6 78.3 32.8 78.9 32.8C79.5 32.8 79.7 32.7 79.9 32.5C80.1 32.3 80.3 32 80.4 31.5C80.4 31 80.5 30.5 80.5 29.7C80.5 28.9 80.3 28 79.9 27.2C79.5 26.5 79 25.7 78.2 24.9L76.4 23.1C75.9 22.6 75.5 22 75.1 21.5C74.7 20.9 74.4 20.3 74.2 19.6C74 18.9 73.9 18.1 73.9 17.2C73.9 15.9 74.1 14.9 74.4 14C74.7 13.1 75.2 12.5 76 12C76.7 11.5 77.7 11.3 79 11.3C80.3 11.3 80.8 11.5 81.4 11.8C82 12.1 82.5 12.5 82.9 13.1C83.3 13.7 83.5 14.4 83.7 15.2C83.8 16 83.9 16.9 83.9 18V19.5H80.5V17.8C80.5 17.1 80.5 16.5 80.4 16C80.4 15.5 80.2 15.2 80 14.9C79.8 14.7 79.5 14.5 79.1 14.5C78.7 14.5 78.4 14.5 78.2 14.8C78 15 77.8 15.2 77.7 15.6C77.7 15.9 77.6 16.4 77.6 17C77.6 17.6 77.6 17.9 77.8 18.3C78 18.7 78.1 19 78.4 19.4C78.7 19.7 79 20.1 79.4 20.5L81.4 22.6C82.3 23.6 83.1 24.7 83.6 25.8C84.1 26.9 84.4 28.1 84.4 29.5C84.4 30.9 84.2 32.1 83.9 33.1C83.6 34.1 83.1 34.8 82.3 35.3C81.6 35.8 80.6 36.1 79.3 36.1L78.9 36Z" fill="white"/>
<path d="M90.9 36C89.9 36 89.1 35.8 88.4 35.5C87.7 35.2 87.2 34.7 86.8 34.1C86.4 33.5 86.1 32.8 86 31.9C85.8 31 85.8 30 85.8 28.9V26.8H89.3V29.2C89.3 30.5 89.4 31.4 89.6 32C89.8 32.6 90.3 32.8 90.9 32.8C91.5 32.8 91.7 32.7 91.9 32.5C92.1 32.3 92.3 32 92.4 31.5C92.4 31 92.5 30.5 92.5 29.7C92.5 28.9 92.3 28 91.9 27.2C91.5 26.5 91 25.7 90.2 24.9L88.4 23.1C87.9 22.6 87.5 22 87.1 21.5C86.7 20.9 86.4 20.3 86.2 19.6C86 18.9 85.9 18.1 85.9 17.2C85.9 15.9 86.1 14.9 86.4 14C86.7 13.1 87.2 12.5 88 12C88.7 11.5 89.7 11.3 91 11.3C92.3 11.3 92.8 11.5 93.4 11.8C94 12.1 94.5 12.5 94.9 13.1C95.3 13.7 95.5 14.4 95.7 15.2C95.8 16 95.9 16.9 95.9 18V19.5H92.5V17.8C92.5 17.1 92.5 16.5 92.4 16C92.4 15.5 92.2 15.2 92 14.9C91.8 14.7 91.5 14.5 91.1 14.5C90.7 14.5 90.4 14.5 90.2 14.8C90 15 89.8 15.2 89.7 15.6C89.6 15.9 89.5 16.4 89.5 17C89.5 17.6 89.5 17.9 89.7 18.3C89.9 18.7 90 19 90.3 19.4C90.6 19.7 90.9 20.1 91.3 20.5L93.3 22.6C94.2 23.6 95 24.7 95.5 25.8C96 26.9 96.3 28.1 96.3 29.5C96.3 30.9 96.1 32.1 95.8 33.1C95.5 34.1 95 34.8 94.2 35.3C93.5 35.8 92.5 36.1 91.2 36.1L90.9 36Z" fill="white"/>
<path d="M98.5 35.8V11.7H102.2V35.7H98.5V35.8Z" fill="white"/>
<path d="M105.9 35.8V11.7H108.8L113.9 26.1L113.6 19.6V11.7H116.9V35.7H114.3L109.1 20.8L109.3 27.1V35.7H105.9V35.8Z" fill="white"/>
<path d="M125.5 36C124.3 36 123.2 35.7 122.4 35.2C121.6 34.7 121 33.9 120.7 32.9C120.3 31.9 120.1 30.6 120.1 29.1V18.1C120.1 16.7 120.3 15.5 120.6 14.6C121 13.6 121.5 12.9 122.3 12.3C123.1 11.8 124.1 11.5 125.4 11.5C126.7 11.5 127.2 11.7 127.8 12C128.5 12.3 129 12.7 129.4 13.3C129.8 13.9 130.1 14.6 130.3 15.4C130.5 16.2 130.6 17.1 130.6 18.2V29.2C130.6 30.7 130.4 32 130.1 33C129.7 34 129.2 34.8 128.4 35.3C127.6 35.8 126.6 36.1 125.4 36.1L125.5 36ZM125.5 32.9C126 32.9 126.3 32.8 126.5 32.5C126.7 32.2 126.9 31.8 126.9 31.3C126.9 30.7 127 30 127 29.2V18C127 17 127 16.1 126.7 15.6C126.5 15 126.1 14.7 125.4 14.7C124.7 14.7 124.3 15 124 15.5C123.8 16 123.6 16.9 123.6 17.9V29.1C123.6 30 123.6 30.7 123.7 31.3C123.7 31.9 123.9 32.3 124.2 32.5C124.4 32.8 124.8 32.9 125.3 32.9H125.5Z" fill="white"/>
<path d="M141.3 35.7L145.6 5.4H151.7L156.3 35.7H152L151.3 30.3H146.4L145.7 35.7H141.3ZM146.9 26.6H150.9L148.9 11.4L147 26.6H146.9Z" fill="#FFFF00"/>
<path d="M163.5 36C162.3 36 161.2 35.8 160.5 35.3C159.7 34.8 159.1 34.1 158.8 33.2C158.4 32.2 158.3 31 158.3 29.6V11.7H162V29.5C162 30.2 162 30.8 162 31.3C162 31.8 162.2 32.2 162.4 32.5C162.6 32.8 163 32.9 163.5 32.9C164 32.9 164.4 32.8 164.6 32.5C164.8 32.2 165 31.8 165 31.3C165 30.8 165 30.2 165 29.5V11.7H168.7V29.5C168.7 31 168.5 32.2 168.2 33.1C167.8 34 167.3 34.8 166.5 35.2C165.7 35.7 164.7 35.9 163.5 35.9V36Z" fill="#FFFF00"/>
<path d="M173.5 35.8V14.9H170.7V11.7H179.9V14.9H177.2V35.7H173.6L173.5 35.8Z" fill="#FFFF00"/>
<path d="M186.9 36C185.7 36 184.6 35.7 183.8 35.2C183 34.7 182.4 33.9 182.1 32.9C181.7 31.9 181.5 30.6 181.5 29.1V18.1C181.5 16.7 181.7 15.5 182 14.6C182.4 13.6 182.9 12.9 183.7 12.3C184.5 11.8 185.5 11.5 186.8 11.5C188.1 11.5 188.6 11.7 189.2 12C189.9 12.3 190.4 12.7 190.8 13.3C191.2 13.9 191.5 14.6 191.7 15.4C191.9 16.2 192 17.1 192 18.2V29.2C192 30.7 191.8 32 191.5 33C191.1 34 190.6 34.8 189.8 35.3C189 35.8 188 36.1 186.8 36.1L186.9 36ZM186.9 32.9C187.4 32.9 187.7 32.8 187.9 32.5C188.1 32.2 188.3 31.8 188.4 31.3C188.4 30.7 188.5 30 188.5 29.2V18C188.5 17 188.5 16.1 188.2 15.6C188 15 187.6 14.7 186.9 14.7C186.2 14.7 185.8 15 185.5 15.5C185.3 16 185.1 16.9 185.1 17.9V29.1C185.1 30 185.1 30.7 185.2 31.3C185.2 31.9 185.4 32.3 185.7 32.5C185.9 32.8 186.3 32.9 186.8 32.9H186.9Z" fill="#FFFF00"/>
<path d="M195.5 35.8V11.7H201.5C202.8 11.7 203.7 11.9 204.3 12.4C204.9 12.9 205.3 13.6 205.5 14.6C205.7 15.5 205.8 16.7 205.8 18.1C205.8 19.5 205.7 20.6 205.4 21.4C205.1 22.2 204.5 22.7 203.7 23C204.1 23 204.5 23.2 204.8 23.5C205.1 23.8 205.3 24.2 205.5 24.7C205.7 25.2 205.8 25.9 205.9 26.7C205.9 27.5 206 28.5 206 29.6V31.9C206 32.5 206 33 206 33.6C206 34.2 206 34.6 206 35C206 35.4 206 35.6 206 35.7H202.3C202.3 35.7 202.3 35.4 202.3 35C202.3 34.6 202.3 34 202.3 33.4C202.3 32.7 202.3 32 202.3 31.3V27.1C202.3 26.4 202.3 25.8 202.1 25.5C202 25.1 201.8 24.9 201.5 24.7C201.2 24.6 200.8 24.5 200.3 24.4H199.1V35.7H195.4L195.5 35.8ZM199.2 21.6H200.7C201.1 21.6 201.5 21.5 201.7 21.3C201.9 21.1 202.1 20.7 202.2 20.2C202.2 19.7 202.3 18.9 202.3 17.9V17.7C202.3 16.9 202.3 16.2 202.2 15.7C202.2 15.2 201.9 14.9 201.7 14.8C201.4 14.6 201 14.5 200.5 14.5H199.3V21.5L199.2 21.6Z" fill="#FFFF00"/>
<path d="M209.1 35.8V11.7H212.8V35.7H209.1V35.8Z" fill="#FFFF00"/>
<path d="M215.5 35.8V32.6L220.5 15H216V11.8H224.4V14.8L219.4 32.7H224.3V35.9H215.6L215.5 35.8Z" fill="#FFFF00"/>
<path d="M225.2 35.8L228.6 11.8H233.4L237 35.8H233.6L233 31.5H229.1L228.6 35.8H225.1H225.2ZM229.6 28.5H232.7L231.1 16.4L229.6 28.5Z" fill="#FFFF00"/>
<path d="M239.3 35.8V11.7H244.7C245.9 11.7 246.9 11.9 247.6 12.4C248.3 12.9 248.9 13.6 249.2 14.5C249.5 15.4 249.7 16.5 249.7 17.8V28.6C249.7 30.2 249.5 31.5 249.2 32.5C248.9 33.5 248.3 34.3 247.6 34.8C246.8 35.3 245.8 35.6 244.6 35.6H239.3V35.8ZM243 32.9H244.2C244.6 32.9 245 32.9 245.3 32.6C245.6 32.4 245.8 32.1 245.9 31.7C246 31.3 246.1 30.6 246.1 29.8V17.9C246.1 16.7 245.9 15.8 245.6 15.3C245.3 14.8 244.8 14.5 244 14.5H242.9V32.9H243Z" fill="#FFFF00"/>
<path d="M258.1 36C256.9 36 255.8 35.7 255 35.2C254.2 34.7 253.6 33.9 253.3 32.9C252.9 31.9 252.7 30.6 252.7 29.1V18.1C252.7 16.7 252.9 15.5 253.2 14.6C253.6 13.6 254.1 12.9 254.9 12.3C255.7 11.8 256.7 11.5 258 11.5C259.3 11.5 259.8 11.7 260.4 12C261.1 12.3 261.6 12.7 262 13.3C262.4 13.9 262.7 14.6 262.9 15.4C263.1 16.2 263.2 17.1 263.2 18.2V29.2C263.2 30.7 263 32 262.7 33C262.3 34 261.8 34.8 261 35.3C260.2 35.8 259.2 36.1 258 36.1L258.1 36ZM258.1 32.9C258.6 32.9 258.9 32.8 259.1 32.5C259.3 32.2 259.5 31.8 259.5 31.3C259.5 30.7 259.6 30 259.6 29.2V18C259.6 17 259.6 16.1 259.3 15.6C259.1 15 258.7 14.7 258 14.7C257.3 14.7 256.9 15 256.6 15.5C256.4 16 256.2 16.9 256.2 17.9V29.1C256.2 30 256.2 30.7 256.3 31.3C256.3 31.9 256.5 32.3 256.8 32.5C257 32.8 257.4 32.9 257.9 32.9H258.1Z" fill="#FFFF00"/>
<path d="M280.1 36C278.5 36 277.2 35.7 276.2 35C275.2 34.3 274.5 33.3 274 32C273.5 30.7 273.3 29.1 273.3 27.2V13.4C273.3 11.7 273.5 10.2 274 8.9C274.5 7.7 275.2 6.7 276.2 6C277.2 5.3 278.5 5 280.1 5C281.7 5 282.3 5.2 283.2 5.6C284 6 284.7 6.5 285.2 7.3C285.7 8 286.1 8.9 286.3 9.9C286.5 10.9 286.7 12.1 286.7 13.4V27.2C286.7 29.1 286.5 30.7 286 32C285.6 33.3 284.8 34.3 283.9 35C282.9 35.7 281.7 36 280.1 36ZM280.1 32C280.7 32 281.1 31.8 281.4 31.5C281.7 31.2 281.9 30.6 282 29.9C282.1 29.2 282.2 28.3 282.2 27.2V13.1C282.2 11.8 282.1 10.8 281.8 10.1C281.6 9.4 281 9 280.2 9C279.4 9 278.8 9.3 278.5 10C278.2 10.7 278.1 11.7 278.1 13.1V27.2C278.1 28.3 278.1 29.2 278.2 29.9C278.3 30.6 278.5 31.1 278.8 31.4C279.1 31.7 279.6 31.9 280.2 31.9L280.1 32Z" fill="white"/>
<path d="M291 35.8V11.7H293.9L299 26.1L298.7 19.6V11.7H302V35.7H299.4L294.2 20.8L294.4 27.1V35.7H291V35.8Z" fill="white"/>
<path d="M305.6 35.8V11.7H309.3V32.6H313.9V35.7H305.6V35.8Z" fill="white"/>
<path d="M316 35.8V11.7H319.7V35.7H316V35.8Z" fill="white"/>
<path d="M323.3 35.8V11.7H326.2L331.3 26.1L331 19.6V11.7H334.3V35.7H331.7L326.5 20.8L326.7 27.1V35.7H323.3V35.8Z" fill="white"/>
<path d="M337.9 35.8V11.7H345.9V14.9H341.5V21.9H345.7V25H341.5V32.6H346.1V35.8H337.9Z" fill="white"/>
<mask id="mask0_92_134" style="mask-type:luminance" maskUnits="userSpaceOnUse" x="2" y="1" width="38" height="38">
<path d="M39.4 1.7H2.89999V38.2H39.4V1.7Z" fill="white"/>
</mask>
<g mask="url(#mask0_92_134)">
<path d="M16.1 20.7C16.1 18.1 21.1 14.1 21.1 14.1C21.1 14.1 26.1 18.2 26.1 20.7C26.1 23.2 25.2 23.3 23.8 23.3C22.4 23.3 21.8 22.5 21.5 21.9C22.3 23.6 24.1 25.8 24.1 25.8H18.3C18.3 25.8 20.1 23.6 20.9 21.9C20.5 22.6 19.8 23.3 18.6 23.3C17.4 23.3 16.3 22.5 16.3 20.7H16.1ZM39.4 20C39.4 24.9 37.5 29.5 34.1 32.9C30.7 36.3 26.1 38.2 21.2 38.2C16.3 38.2 11.7 36.3 8.3 32.9C4.9 29.5 3 24.9 3 20C3 15.1 4.9 10.5 8.3 7.1C11.7 3.7 16.3 1.8 21.2 1.8C26.1 1.8 30.7 3.7 34.1 7.1C37.5 10.5 39.4 15.1 39.4 20ZM11.6 12.4L9.3 10.1C7.4 12.4 6.1 15.3 5.8 18.5H9C9.3 16.2 10.2 14.1 11.5 12.4H11.6ZM30.9 8.1C28.6 6.2 25.7 4.9 22.5 4.6V7.8C24.8 8.1 26.9 9 28.6 10.3L30.9 8V8.1ZM19.7 4.6C16.5 4.9 13.6 6.2 11.3 8.1L13.6 10.4C15.3 9 17.4 8.1 19.7 7.9V4.7V4.6ZM11.8 20C11.8 25.1 16 29.3 21.1 29.3C26.2 29.3 30.4 25.1 30.4 20C30.4 14.9 26.2 10.7 21.1 10.7C16 10.7 11.8 14.9 11.8 20ZM11.3 31.8C13.6 33.7 16.5 35 19.7 35.3V32.1C17.4 31.8 15.3 30.9 13.6 29.6L11.3 31.9V31.8ZM22.5 35.3C25.7 35 28.6 33.7 30.9 31.8L28.6 29.5C26.9 30.9 24.8 31.8 22.5 32V35.2V35.3ZM33 29.8C34.9 27.5 36.2 24.6 36.5 21.4H33.3C33 23.7 32.1 25.8 30.8 27.5L33.1 29.8H33ZM33 10.1L30.7 12.4C32.1 14.1 33 16.2 33.2 18.5H36.4C36.1 15.3 34.8 12.4 32.9 10.1H33ZM9.3 29.8L11.6 27.5C10.2 25.8 9.3 23.7 9.1 21.4H5.9C6.2 24.6 7.5 27.5 9.4 29.8H9.3Z" fill="url(#paint0_linear_92_134)"/>
</g>
<defs>
<linearGradient id="paint0_linear_92_134" x1="21.1" y1="1.7" x2="21.1" y2="38.2" gradientUnits="userSpaceOnUse">
<stop stop-color="#FFFF00"/>
<stop offset="1" stop-color="#FFFF00"/>
</linearGradient>
</defs>
</svg>
