<?xml version="1.0" encoding="UTF-8"?>
<svg id="Layer_1" xmlns="http://www.w3.org/2000/svg" version="1.1" viewBox="0 0 128 128">
  <!-- Generator: Adobe Illustrator 29.8.0, SVG Export Plug-In . SVG Version: 2.1.1 Build 160)  -->
  <defs>
    <style>
      .st0 {
        fill: #282828;
      }
    </style>
  </defs>
  <path class="st0" d="M73.5,55.8c.6-1.3.9-2.8.9-4.3,0-5.8-4.7-10.4-10.4-10.4s-10.4,4.7-10.4,10.4.4,3,.9,4.3c-5.2.6-9.3,5-9.3,10.3s4.7,10.4,10.4,10.4,4.6-.8,6.3-2.2c0,1.7-.4,4.3-2,6.1-1.4,1.6-3.5,2.4-6.4,2.4s-2.1.9-2.1,2.1.9,2.1,2.1,2.1c4.1,0,7.3-1.3,9.5-3.8,2.4-2.8,3-6.4,3.1-8.7,1.7,1.3,3.9,2.1,6.2,2.1,5.8,0,10.4-4.7,10.4-10.4s-4.1-9.7-9.3-10.3h.1Z"/>
  <path class="st0" d="M76.5,28.6V4.8c-4-.9-8.2-1.3-12.5-1.3s-8.5.5-12.5,1.3v23.8c3.9-1.4,8.1-2.2,12.5-2.2s8.6.8,12.5,2.2Z"/>
  <path class="st0" d="M123.2,51.5h-23.8c1.4,3.9,2.2,8.1,2.2,12.5s-.8,8.6-2.2,12.5h23.8c.9-4,1.3-8.2,1.3-12.5s-.5-8.5-1.3-12.5Z"/>
  <path class="st0" d="M97.6,47.3h24.6c-5.7-20-21.5-35.7-41.5-41.5v24.6c7.3,3.6,13.3,9.6,16.9,16.9Z"/>
  <path class="st0" d="M47.3,30.4V5.8C27.3,11.6,11.6,27.3,5.8,47.3h24.6c3.6-7.3,9.6-13.3,16.9-16.9Z"/>
  <path class="st0" d="M80.7,97.6v24.6c20-5.7,35.7-21.5,41.5-41.5h-24.6c-3.6,7.3-9.6,13.3-16.9,16.9Z"/>
  <path class="st0" d="M26.4,64c0-4.4.8-8.6,2.2-12.5H4.8c-.9,4-1.3,8.2-1.3,12.5s.5,8.5,1.3,12.5h23.8c-1.4-3.9-2.2-8.1-2.2-12.5Z"/>
  <path class="st0" d="M51.5,99.4v23.8c4,.9,8.2,1.3,12.5,1.3s8.5-.5,12.5-1.3v-23.8c-3.9,1.4-8.1,2.2-12.5,2.2s-8.6-.8-12.5-2.2Z"/>
  <path class="st0" d="M30.4,80.7H5.8c5.7,20,21.5,35.7,41.5,41.5v-24.6c-7.3-3.6-13.3-9.6-16.9-16.9Z"/>
</svg>